<?xml version="1.0" encoding="iso-8859-1"?>
<!-- Generator: Adobe Illustrator 19.0.0, SVG Export Plug-In . SVG Version: 6.00 Build 0)  -->
<svg version="1.1" id="Layer_1" xmlns="http://www.w3.org/2000/svg" xmlns:xlink="http://www.w3.org/1999/xlink" x="0px" y="0px"
	 viewBox="0 0 473.931 473.931" style="enable-background:new 0 0 473.931 473.931;" xml:space="preserve">
<circle style="fill:#49A0AE;" cx="236.966" cy="236.966" r="236.966"/>
<path style="fill:#937048;" d="M164.267,84.089c0-13.25-10.743-23.992-24-23.992c-13.257,0-23.992,10.743-23.992,23.992
	c0,9.654,5.706,17.957,13.931,21.762v306.787c0,6.245,5.059,11.304,11.304,11.304c6.245,0,11.304-5.063,11.304-11.304V104.511
	C159.68,100.29,164.267,92.736,164.267,84.089z"/>
<path style="fill:#846443;" d="M140.267,60.093c-13.257,0-23.992,10.743-23.992,23.992c0,9.654,5.706,17.957,13.931,21.762v306.787
	c0,6.245,5.059,11.304,11.304,11.304L140.267,60.093z"/>
<path style="fill:#344E5D;" d="M366.453,253.482c0,8.097-6.563,14.66-14.66,14.66H130.108V111.778h221.684
	c8.097,0,14.66,6.567,14.66,14.66V253.482z"/>
<path style="fill:#2D444F;" d="M366.453,253.482c0,8.097-6.563,14.66-14.66,14.66H130.108v-82.188h236.345V253.482z"/>
<path style="fill:#F0AC1E;" d="M309.481,177.154c-0.441-1.355-1.613-2.342-3.023-2.548l-35.191-5.119l-15.749-31.895
	c-1.257-2.556-5.452-2.556-6.709,0l-15.749,31.895l-35.191,5.119c-1.411,0.206-2.578,1.194-3.023,2.548
	c-0.438,1.355-0.075,2.84,0.947,3.835l25.474,24.827l-6.009,35.064c-0.239,1.403,0.337,2.821,1.485,3.659
	c0.655,0.471,1.426,0.715,2.2,0.715c0.595,0,1.194-0.142,1.744-0.43l31.479-16.554l31.479,16.554
	c1.265,0.662,2.784,0.554,3.944-0.284c1.152-0.838,1.729-2.256,1.486-3.659l-6.002-35.064l25.466-24.827
	C309.552,179.994,309.919,178.508,309.481,177.154z"/>
<path style="fill:#F8B43C;" d="M252.228,135.684c-1.381-0.022-2.776,0.614-3.42,1.916l-15.749,31.891l-35.188,5.119
	c-1.411,0.206-2.578,1.194-3.027,2.548c-0.438,1.355-0.075,2.844,0.95,3.835l25.47,24.827l-6.006,35.06
	c-0.239,1.403,0.337,2.825,1.482,3.659c0.659,0.475,1.426,0.715,2.2,0.715c0.599,0,1.197-0.142,1.747-0.43l31.476-16.554
	L252.228,135.684z"/>
<g>
</g>
<g>
</g>
<g>
</g>
<g>
</g>
<g>
</g>
<g>
</g>
<g>
</g>
<g>
</g>
<g>
</g>
<g>
</g>
<g>
</g>
<g>
</g>
<g>
</g>
<g>
</g>
<g>
</g>
</svg>
